<svg viewBox="0 0 22 22" xmlns="http://www.w3.org/2000/svg">
<path d="M9.6 12.6586L7.52071 10.5793C7.31679 10.3754 7.05715 10.275 6.75 10.275C6.44285 10.275 6.18321 10.3754 5.97929 10.5793C5.77537 10.7832 5.675 11.0429 5.675 11.35C5.675 11.6571 5.77537 11.9168 5.97929 12.1207L8.82929 14.9707C9.04678 15.1882 9.30508 15.3 9.6 15.3C9.89492 15.3 10.1532 15.1882 10.3707 14.9707L16.0207 9.32071C16.2246 9.11679 16.325 8.85715 16.325 8.55C16.325 8.24285 16.2246 7.98321 16.0207 7.77929C15.8168 7.57537 15.5571 7.475 15.25 7.475C14.9429 7.475 14.6832 7.57537 14.4793 7.77929L9.6 12.6586ZM7.06038 20.3043C8.29011 20.835 9.60365 21.1 11 21.1C12.3963 21.1 13.7099 20.835 14.9396 20.3043C16.1674 19.7745 17.2364 19.055 18.1457 18.1457C19.055 17.2364 19.7745 16.1674 20.3043 14.9396C20.835 13.7099 21.1 12.3963 21.1 11C21.1 9.60365 20.835 8.29011 20.3043 7.06038C19.7745 5.83259 19.055 4.76359 18.1457 3.85429C17.2364 2.94499 16.1674 2.22548 14.9396 1.69568C13.7099 1.16505 12.3963 0.9 11 0.9C9.60365 0.9 8.29011 1.16505 7.06038 1.69568C5.83259 2.22548 4.76359 2.94499 3.85429 3.85429C2.94499 4.76359 2.22548 5.83259 1.69568 7.06038C1.16505 8.29011 0.9 9.60365 0.9 11C0.9 12.3963 1.16505 13.7099 1.69568 14.9396C2.22548 16.1674 2.94499 17.2364 3.85429 18.1457C4.76359 19.055 5.83259 19.7745 7.06038 20.3043ZM16.6043 16.6043C15.0734 18.1351 13.2074 18.9 11 18.9C8.79263 18.9 6.92656 18.1351 5.39571 16.6043C3.86486 15.0734 3.1 13.2074 3.1 11C3.1 8.79263 3.86486 6.92656 5.39571 5.39571C6.92656 3.86486 8.79263 3.1 11 3.1C13.2074 3.1 15.0734 3.86486 16.6043 5.39571C18.1351 6.92656 18.9 8.79263 18.9 11C18.9 13.2074 18.1351 15.0734 16.6043 16.6043Z" fill="#FF5700" stroke="#0A68FE" stroke-width="0.2"/>
</svg>
